<svg width="128" height="128" viewBox="0 0 128 128" xmlns="http://www.w3.org/2000/svg">
  <defs>
    <linearGradient id="cube" x1="0%" y1="0%" x2="100%" y2="100%">
      <stop offset="0%" stop-color="#2d9cdb" />
      <stop offset="100%" stop-color="#2563eb" />
    </linearGradient>
    <linearGradient id="letter" x1="0%" y1="0%" x2="0%" y2="100%">
      <stop offset="0%" stop-color="#c084fc" />
      <stop offset="100%" stop-color="#8b5cf6" />
    </linearGradient>
  </defs>
  <rect x="12" y="12" width="104" height="104" rx="24" fill="url(#cube)" />
  <path d="M32 80c12-4 18-2 26-12s12-22 26-26c8-2 14 0 24 4v30c0 13-11 24-24 24H44c-13 0-20-10-12-20z" fill="#34d399" opacity="0.6" />
  <path d="M46 92c8-6 18-4 26-12s10-20 22-22c6-1 10 1 16 4v20c0 11-9 20-20 20H54c-9 0-12-6-8-10z" fill="#1d4ed8" opacity="0.45" />
  <path d="M48 28h32c11 0 20 9 20 20v32c0 11-9 20-20 20H48c-11 0-20-9-20-20V48c0-11 9-20 20-20z" fill="url(#letter)" stroke="#1f1646" stroke-width="6" stroke-linejoin="round" />
  <path d="M56 40h16c4 0 6 2 6 6v36c0 4-2 6-6 6H56c-4 0-6-2-6-6V46c0-4 2-6 6-6z" fill="#f8f6ff" />
  <path d="M56 40h16c4 0 6 2 6 6v8H50v-8c0-4 2-6 6-6z" fill="#ede9fe" />
</svg>
